<svg version="1.1" id="Layer_1" xmlns="http://www.w3.org/2000/svg" xmlns:xlink="http://www.w3.org/1999/xlink" x="0px" y="0px"
	 width="100%" viewBox="0 0 1000 1000" enable-background="new 0 0 1000 1000" xml:space="preserve">
<path fill="#000000" opacity="1.000000" stroke="none" 
	d="
M456.000000,1001.000000 
	C304.000000,1001.000000 152.500000,1001.000000 1.000000,1001.000000 
	C1.000000,667.666687 1.000000,334.333344 1.000000,1.000000 
	C334.333344,1.000000 667.666687,1.000000 1001.000000,1.000000 
	C1001.000000,334.333344 1001.000000,667.666687 1001.000000,1001.000000 
	C819.500000,1001.000000 638.000000,1001.000000 456.000000,1001.000000 
M465.719910,500.789795 
	C469.971924,496.864838 474.385010,493.098602 478.441833,488.981384 
	C486.449097,480.854950 494.201141,472.477600 502.166016,464.308624 
	C511.064758,455.181824 520.082642,446.171173 529.766296,437.024963 
	C530.211731,436.364868 530.657166,435.704803 531.701721,434.802887 
	C533.148560,433.234131 534.595398,431.665375 536.762024,430.027496 
	C537.210999,429.367554 537.659912,428.707611 538.706604,427.803497 
	C540.151001,426.232819 541.595337,424.662109 543.725281,423.036133 
	C544.465088,423.725403 545.204956,424.414673 545.995605,426.026978 
	C545.995605,463.310211 545.995605,500.593445 545.995605,537.876648 
	C546.430054,537.931274 546.864502,537.985901 547.298950,538.040527 
	C547.946594,536.829590 548.346069,535.364807 549.282593,534.449402 
	C554.884460,528.973755 560.672668,523.688782 566.277588,518.216187 
	C572.636963,512.006897 578.930542,505.727478 585.141663,499.370056 
	C593.316101,491.002991 601.240540,482.387451 609.537903,474.145966 
	C616.825073,466.907898 624.507446,460.069092 631.957642,452.993317 
	C636.126770,449.033630 640.115051,444.883057 644.297974,440.938538 
	C650.869141,434.742035 656.259644,427.478119 663.777161,422.045441 
	C669.634766,417.812408 673.819214,411.309326 678.942078,406.003174 
	C685.518860,399.191040 692.267273,392.543579 698.985291,385.868988 
	C706.036072,378.863678 713.338989,372.097656 720.120300,364.842560 
	C722.864685,361.906342 725.459229,358.969727 725.245117,353.737183 
	C724.578186,337.440704 725.006836,321.099640 724.986206,304.775909 
	C724.984619,303.525330 724.792175,302.275055 724.686523,301.000732 
	C705.608276,301.000732 686.953064,300.997589 668.297852,301.009399 
	C667.310913,301.010010 665.949768,300.742615 665.396484,301.267700 
	C660.976440,305.462280 656.649109,309.759735 652.410583,314.139038 
	C647.080383,319.646301 641.978394,325.378143 636.561951,330.797180 
	C630.783630,336.578278 624.646667,342.000824 618.864868,347.778595 
	C613.671021,352.968750 608.817017,358.497345 603.684998,363.751495 
	C597.435181,370.150146 591.054749,376.421356 584.723816,382.740631 
	C581.985901,385.473419 579.260803,388.220215 576.476318,390.905029 
	C570.712158,396.462769 564.875366,401.945740 559.140076,407.532898 
	C555.645142,410.937592 552.283630,414.479187 548.227661,418.197296 
	C546.503296,418.424042 544.778931,418.650787 543.004028,417.956818 
	C543.004028,362.050476 543.004028,306.144135 543.004028,249.328842 
	C541.243225,250.266754 540.050354,250.673569 539.141479,251.424240 
	C534.124023,255.568176 529.307983,259.966705 524.166626,263.946869 
	C519.054443,267.904480 513.492126,271.281891 508.392517,275.254272 
	C501.428711,280.678711 494.713531,286.422394 487.896393,292.034912 
	C483.312378,295.808960 478.781647,299.649445 474.142303,303.354034 
	C470.477356,306.280518 466.683258,309.045319 462.197754,312.235626 
	C461.798737,313.917328 461.052429,315.598694 461.050812,317.280762 
	C460.993256,377.546173 461.005310,437.811676 461.007629,498.077148 
	C461.007690,499.656189 461.007629,501.235260 461.007629,504.137512 
	C463.034576,502.603424 464.065338,501.823273 465.719910,500.789795 
M461.371246,622.888123 
	C460.950226,622.579163 460.529205,622.270264 460.007751,621.033691 
	C460.007751,583.786560 460.007751,546.539429 460.007751,509.292297 
	C459.541718,508.967804 459.075684,508.643311 458.609650,508.318817 
	C414.973236,551.919983 371.336823,595.521118 326.858215,639.963684 
	C326.465820,636.462341 326.030060,634.385437 326.029388,632.308350 
	C325.996124,527.881104 325.999603,423.453918 326.004761,319.026703 
	C326.004822,317.696472 326.078064,316.366211 326.873413,314.599915 
	C326.873413,293.188660 326.873413,271.777405 326.873413,249.712143 
	C325.383362,250.174911 324.136108,250.562271 322.149567,251.036453 
	C317.804840,254.214722 313.381683,257.292358 309.138367,260.600739 
	C305.212158,263.661865 301.493286,266.987793 297.656372,270.164795 
	C292.775726,274.206024 287.883850,278.233978 282.967255,282.231293 
	C278.923187,285.519196 274.883148,288.815216 270.755280,291.996002 
	C266.209198,295.499023 261.489868,298.779449 256.984802,302.332825 
	C252.658035,305.745483 248.508850,309.383362 244.000610,313.157562 
	C244.000610,314.897278 244.000610,317.061157 244.000610,319.225037 
	C244.000244,432.385223 243.999771,545.545410 243.999512,658.705566 
	C243.999466,677.704468 243.970505,696.703552 244.048447,715.702148 
	C244.055923,717.523132 244.731781,719.341370 245.097366,721.160828 
	C245.640427,721.252502 246.183472,721.344177 246.726532,721.435852 
	C273.425323,694.516296 300.124115,667.596680 327.574219,639.919556 
	C327.574219,678.483276 327.574219,716.642273 327.574219,754.801331 
	C328.061981,754.937073 328.549744,755.072815 329.037506,755.208557 
	C335.012512,749.452454 341.037537,743.747253 346.949524,737.927124 
	C353.985046,731.000671 360.850494,723.900391 367.935486,717.025757 
	C371.338043,713.724182 375.318329,711.002502 378.605621,707.601257 
	C383.604584,702.429077 388.034454,696.703552 393.076538,691.577515 
	C396.726685,687.866577 401.311798,685.063599 404.887909,681.294067 
	C411.405487,674.423950 417.296173,666.959534 423.804291,660.079712 
	C429.014496,654.571899 434.790924,649.603027 440.243347,644.319946 
	C444.611115,640.087830 448.893494,635.766541 453.166290,631.437927 
	C455.187073,629.390747 457.096619,627.233765 459.926361,625.053284 
	C460.285919,626.664062 460.957214,628.274353 460.959534,629.885620 
	C461.018677,670.762390 460.982574,711.639343 461.094238,752.515869 
	C461.099060,754.281921 462.351685,756.044617 463.949524,757.937256 
	C590.301880,757.940308 716.654175,757.943787 843.006531,757.940247 
	C844.334839,757.940247 845.663208,757.846863 847.530029,757.926392 
	C847.619019,757.616516 847.708069,757.306580 847.931763,756.277649 
	C844.721375,751.801636 841.528381,747.313110 838.295410,742.853516 
	C835.523804,739.030212 832.888733,735.087952 829.868408,731.469421 
	C824.742249,725.327881 819.144348,719.572266 814.156372,713.325684 
	C810.374023,708.588928 807.390686,703.222595 803.761047,698.353149 
	C799.997742,693.304260 795.903259,688.500854 791.918762,683.618530 
	C787.505310,678.210693 783.063660,674.712219 774.808350,674.767944 
	C700.521362,675.269592 626.229614,675.061951 551.939270,675.062439 
	C543.000549,675.062500 543.000610,675.062500 543.000488,665.878845 
	C543.000183,626.734802 542.999878,587.590820 542.999573,548.446777 
	C542.999573,546.697144 542.999573,544.947510 542.999573,542.269226 
	C541.316528,543.599487 540.394897,544.176514 539.657898,544.933289 
	C530.048706,554.801392 520.582642,564.812073 510.843353,574.549500 
	C500.933838,584.457092 490.710114,594.049622 480.723083,603.880798 
	C474.356964,610.147522 468.171204,616.597473 461.371246,622.888123 
z"/>
<path fill="#FFFFFF" opacity="1.000000" stroke="none" 
	d="
M459.056549,625.126465 
	C457.096619,627.233765 455.187073,629.390747 453.166290,631.437927 
	C448.893494,635.766541 444.611115,640.087830 440.243347,644.319946 
	C434.790924,649.603027 429.014496,654.571899 423.804291,660.079712 
	C417.296173,666.959534 411.405487,674.423950 404.887909,681.294067 
	C401.311798,685.063599 396.726685,687.866577 393.076538,691.577515 
	C388.034454,696.703552 383.604584,702.429077 378.605621,707.601257 
	C375.318329,711.002502 371.338043,713.724182 367.935486,717.025757 
	C360.850494,723.900391 353.985046,731.000671 346.949524,737.927124 
	C341.037537,743.747253 335.012512,749.452454 329.037506,755.208557 
	C328.549744,755.072815 328.061981,754.937073 327.574219,754.801331 
	C327.574219,716.642273 327.574219,678.483276 327.574219,639.919556 
	C300.124115,667.596680 273.425323,694.516296 246.726532,721.435852 
	C246.183472,721.344177 245.640427,721.252502 245.097366,721.160828 
	C244.731781,719.341370 244.055923,717.523132 244.048447,715.702148 
	C243.970505,696.703552 243.999466,677.704468 243.999512,658.705566 
	C243.999771,545.545410 244.000244,432.385223 244.000610,319.225037 
	C244.000610,317.061157 244.000610,314.897278 244.000610,313.157562 
	C248.508850,309.383362 252.658035,305.745483 256.984802,302.332825 
	C261.489868,298.779449 266.209198,295.499023 270.755280,291.996002 
	C274.883148,288.815216 278.923187,285.519196 282.967255,282.231293 
	C287.883850,278.233978 292.775726,274.206024 297.656372,270.164795 
	C301.493286,266.987793 305.212158,263.661865 309.138367,260.600739 
	C313.381683,257.292358 317.804840,254.214722 322.925598,251.083237 
	C324.139496,252.940033 324.948090,254.748062 324.957825,256.560364 
	C325.053253,274.347565 324.985779,292.135590 325.063904,309.922974 
	C325.071381,311.628815 325.750092,313.331726 326.117188,315.035980 
	C326.078064,316.366211 326.004822,317.696472 326.004761,319.026703 
	C325.999603,423.453918 325.996124,527.881104 326.029388,632.308350 
	C326.030060,634.385437 326.465820,636.462341 326.858215,639.963684 
	C371.336823,595.521118 414.973236,551.919983 458.609650,508.318817 
	C459.075684,508.643311 459.541718,508.967804 460.007751,509.292297 
	C460.007751,546.539429 460.007751,583.786560 459.775513,621.710327 
	C459.381042,623.300110 459.218781,624.213257 459.056549,625.126465 
z"/>
<path fill="#FFFFFF" opacity="1.000000" stroke="none" 
	d="
M846.991516,757.797058 
	C845.663208,757.846863 844.334839,757.940247 843.006531,757.940247 
	C716.654175,757.943787 590.301880,757.940308 463.483032,757.416626 
	C463.007721,714.128784 463.012573,671.361694 462.944031,628.594604 
	C462.941040,626.717651 462.266388,624.841736 461.904602,622.965332 
	C468.171204,616.597473 474.356964,610.147522 480.723083,603.880798 
	C490.710114,594.049622 500.933838,584.457092 510.843353,574.549500 
	C520.582642,564.812073 530.048706,554.801392 539.657898,544.933289 
	C540.394897,544.176514 541.316528,543.599487 542.999573,542.269226 
	C542.999573,544.947510 542.999573,546.697144 542.999573,548.446777 
	C542.999878,587.590820 543.000183,626.734802 543.000488,665.878845 
	C543.000610,675.062500 543.000549,675.062500 551.939270,675.062439 
	C626.229614,675.061951 700.521362,675.269592 774.808350,674.767944 
	C783.063660,674.712219 787.505310,678.210693 791.918762,683.618530 
	C795.903259,688.500854 799.997742,693.304260 803.761047,698.353149 
	C807.390686,703.222595 810.374023,708.588928 814.156372,713.325684 
	C819.144348,719.572266 824.742249,725.327881 829.868408,731.469421 
	C832.888733,735.087952 835.523804,739.030212 838.295410,742.853516 
	C841.528381,747.313110 844.721375,751.801636 847.684753,756.718994 
	C847.213867,757.319824 847.065125,757.532104 846.991516,757.797058 
z"/>
<path fill="#FFFFFF" opacity="1.000000" stroke="none" 
	d="
M548.862122,417.959259 
	C552.283630,414.479187 555.645142,410.937592 559.140076,407.532898 
	C564.875366,401.945740 570.712158,396.462769 576.476318,390.905029 
	C579.260803,388.220215 581.985901,385.473419 584.723816,382.740631 
	C591.054749,376.421356 597.435181,370.150146 603.684998,363.751495 
	C608.817017,358.497345 613.671021,352.968750 618.864868,347.778595 
	C624.646667,342.000824 630.783630,336.578278 636.561951,330.797180 
	C641.978394,325.378143 647.080383,319.646301 652.410583,314.139038 
	C656.649109,309.759735 660.976440,305.462280 665.396484,301.267700 
	C665.949768,300.742615 667.310913,301.010010 668.297852,301.009399 
	C686.953064,300.997589 705.608276,301.000732 724.686523,301.000732 
	C724.792175,302.275055 724.984619,303.525330 724.986206,304.775909 
	C725.006836,321.099640 724.578186,337.440704 725.245117,353.737183 
	C725.459229,358.969727 722.864685,361.906342 720.120300,364.842560 
	C713.338989,372.097656 706.036072,378.863678 698.985291,385.868988 
	C692.267273,392.543579 685.518860,399.191040 678.942078,406.003174 
	C673.819214,411.309326 669.634766,417.812408 663.777161,422.045441 
	C656.259644,427.478119 650.869141,434.742035 644.297974,440.938538 
	C640.115051,444.883057 636.126770,449.033630 631.957642,452.993317 
	C624.507446,460.069092 616.825073,466.907898 609.537903,474.145966 
	C601.240540,482.387451 593.316101,491.002991 585.141663,499.370056 
	C578.930542,505.727478 572.636963,512.006897 566.277588,518.216187 
	C560.672668,523.688782 554.884460,528.973755 549.282593,534.449402 
	C548.346069,535.364807 547.946594,536.829590 547.298950,538.040527 
	C546.864502,537.985901 546.430054,537.931274 545.995605,537.876648 
	C545.995605,500.593445 545.995605,463.310211 546.109619,425.236938 
	C547.103149,422.284332 547.982666,420.121796 548.862122,417.959259 
z"/>
<path fill="#FFFFFF" opacity="1.000000" stroke="none" 
	d="
M543.039734,423.091400 
	C541.595337,424.662109 540.151001,426.232819 538.070435,427.954651 
	C536.970276,428.769379 536.506165,429.432983 536.042114,430.096558 
	C534.595398,431.665375 533.148560,433.234131 531.064026,434.952545 
	C529.967102,435.771454 529.507874,436.440704 529.048645,437.109955 
	C520.082642,446.171173 511.064758,455.181824 502.166016,464.308624 
	C494.201141,472.477600 486.449097,480.854950 478.441833,488.981384 
	C474.385010,493.098602 469.971924,496.864838 465.004028,500.821716 
	C463.856354,498.877289 463.049744,496.901398 463.047089,494.924469 
	C462.965149,433.910370 462.961945,372.896149 462.946564,311.881958 
	C466.683258,309.045319 470.477356,306.280518 474.142303,303.354034 
	C478.781647,299.649445 483.312378,295.808960 487.896393,292.034912 
	C494.713531,286.422394 501.428711,280.678711 508.392517,275.254272 
	C513.492126,271.281891 519.054443,267.904480 524.166626,263.946869 
	C529.307983,259.966705 534.124023,255.568176 539.141479,251.424240 
	C540.050354,250.673569 541.243225,250.266754 543.004028,249.328842 
	C543.004028,306.144135 543.004028,362.050476 543.014160,418.838379 
	C543.029358,420.843750 543.034546,421.967590 543.039734,423.091400 
z"/>
<path fill="#E7E7E7" opacity="1.000000" stroke="none" 
	d="
M462.572144,312.058777 
	C462.961945,372.896149 462.965149,433.910370 463.047089,494.924469 
	C463.049744,496.901398 463.856354,498.877289 464.692139,500.948395 
	C464.065338,501.823273 463.034576,502.603424 461.007629,504.137512 
	C461.007629,501.235260 461.007690,499.656189 461.007629,498.077148 
	C461.005310,437.811676 460.993256,377.546173 461.050812,317.280762 
	C461.052429,315.598694 461.798737,313.917328 462.572144,312.058777 
z"/>
<path fill="#E7E7E7" opacity="1.000000" stroke="none" 
	d="
M461.637939,622.926758 
	C462.266388,624.841736 462.941040,626.717651 462.944031,628.594604 
	C463.012573,671.361694 463.007721,714.128784 463.019806,757.352417 
	C462.351685,756.044617 461.099060,754.281921 461.094238,752.515869 
	C460.982574,711.639343 461.018677,670.762390 460.959534,629.885620 
	C460.957214,628.274353 460.285919,626.664062 459.491455,625.089844 
	C459.218781,624.213257 459.381042,623.300110 459.825745,622.174133 
	C460.529205,622.270264 460.950226,622.579163 461.637939,622.926758 
z"/>
<path fill="#E7E7E7" opacity="1.000000" stroke="none" 
	d="
M326.495300,314.817932 
	C325.750092,313.331726 325.071381,311.628815 325.063904,309.922974 
	C324.985779,292.135590 325.053253,274.347565 324.957825,256.560364 
	C324.948090,254.748062 324.139496,252.940033 323.295227,251.039825 
	C324.136108,250.562271 325.383362,250.174911 326.873413,249.712143 
	C326.873413,271.777405 326.873413,293.188660 326.495300,314.817932 
z"/>
<path fill="#E7E7E7" opacity="1.000000" stroke="none" 
	d="
M543.382507,423.063782 
	C543.034546,421.967590 543.029358,420.843750 543.039429,419.298737 
	C544.778931,418.650787 546.503296,418.424042 548.544922,418.078278 
	C547.982666,420.121796 547.103149,422.284332 546.084229,424.775391 
	C545.204956,424.414673 544.465088,423.725403 543.382507,423.063782 
z"/>
<path fill="#E7E7E7" opacity="1.000000" stroke="none" 
	d="
M536.402100,430.062012 
	C536.506165,429.432983 536.970276,428.769379 537.771606,428.076721 
	C537.659912,428.707611 537.210999,429.367554 536.402100,430.062012 
z"/>
<path fill="#E7E7E7" opacity="1.000000" stroke="none" 
	d="
M529.407471,437.067444 
	C529.507874,436.440704 529.967102,435.771454 530.764526,435.073486 
	C530.657166,435.704803 530.211731,436.364868 529.407471,437.067444 
z"/>
<path fill="#E7E7E7" opacity="1.000000" stroke="none" 
	d="
M847.260742,757.861694 
	C847.065125,757.532104 847.213867,757.319824 847.617432,757.078491 
	C847.708069,757.306580 847.619019,757.616516 847.260742,757.861694 
z"/>
</svg>